<svg width="79" height="58" viewBox="0 0 79 58" fill="none" xmlns="http://www.w3.org/2000/svg">
<path d="M39.3107 0L38.1968 1.30772C31.9735 8.40933 28.9466 19.7731 29.334 30.9977L29.3825 32.0632L27.978 30.0774C22.2753 21.5107 13.6305 16.9034 2.7458 14.9661L0.711731 14.5786L0.905452 16.6613C1.49267 22.3765 2.7337 27.0322 4.68301 31.5305L5.07046 32.4991H6.08749L26.7188 32.4507H29.3825V32.4991H73.9383L74.3258 31.5789C76.378 27.1169 77.7038 22.2978 78.3939 16.7097L78.6361 14.6755L76.602 15.0145C65.5054 16.6976 56.6911 21.5228 50.6434 30.029L49.3357 31.8695L49.3842 31.0461C49.929 19.5915 46.8113 8.19744 40.473 1.25928L39.3107 0ZM39.3591 5.08556C43.8389 10.9884 46.3997 19.9729 46.2362 29.3994H32.482C32.4396 20.1667 34.9519 11.1156 39.3591 5.08556ZM4.39243 18.5986C12.4076 20.3725 18.7157 23.7387 23.3771 29.3509L7.20139 29.3994C5.85745 26.1059 4.96754 22.5823 4.39243 18.5986ZM74.8585 18.5986C74.2107 22.552 73.2724 26.1361 71.8558 29.3994H55.3411C60.2689 23.7205 66.704 20.2272 74.8585 18.5986ZM6.32964 36.4707C6.91686 37.7482 7.87941 39.3465 8.70273 40.4907L70.1608 40.4423C71.0567 39.1891 71.9164 37.8995 72.5338 36.4707H6.32964ZM11.5601 44.5592C12.8314 46.2423 13.9453 46.9264 15.5314 48.1917H63.0899C64.4278 47.1504 65.8202 45.9214 67.0612 44.5592H11.5601ZM20.5681 51.5337C24.6302 54.0462 29.3946 55.6929 34.8066 56.813L34.1771 51.5337H20.5681ZM35.4847 51.5337C36.532 53.7132 37.882 55.5416 39.4075 57.2973C40.9089 55.5113 41.932 53.6829 42.9914 51.5337H35.4847ZM44.5411 51.5337L43.7178 56.5224C49.1541 55.5234 53.9427 53.9433 58.1016 51.5337H44.5411Z" fill="#C5CAD9"/>
</svg>
