<svg width="22" height="23" viewBox="0 0 22 23" fill="none" xmlns="http://www.w3.org/2000/svg">
<g opacity="0.7">
<path d="M22 11.5C22 17.5762 17.0762 22.5 11 22.5C4.92381 22.5 -2.15227e-07 17.5762 -4.80825e-07 11.5C-7.46424e-07 5.42381 4.92381 0.500002 11 0.500001C17.0762 0.500001 22 5.42381 22 11.5ZM0.698612 11.5C0.698612 17.192 5.30814 21.8014 11 21.8014C16.6919 21.8014 21.3014 17.1919 21.3014 11.5C21.3014 5.80814 16.6919 1.19861 11 1.19861C5.30813 1.19861 0.698611 5.80814 0.698612 11.5Z" fill="#599296"/>
<path d="M13.5844 7.06525L9.14933 11.5001L13.5844 15.9349L13.0954 16.4587L8.17163 11.5001L13.0954 6.54144L13.5844 7.06525Z" fill="#599296"/>
</g>
</svg>
