<svg width="14" height="9" viewBox="0 0 14 9" fill="none" xmlns="http://www.w3.org/2000/svg">
<path d="M1.76715 0.108594C1.92659 0.0375001 2.09688 0.000671429 2.26888 0H12.2526C12.4246 0.000669657 12.5948 0.0374999 12.7543 0.108483L7.54126 4.62134C7.46134 4.69076 7.36257 4.72859 7.26078 4.72859C7.15908 4.72859 7.06021 4.69098 6.9803 4.62156L1.76715 0.108594ZM8.102 5.40774C7.86234 5.616 7.56605 5.72916 7.26083 5.72928C6.95572 5.72928 6.65945 5.61611 6.41966 5.40797L1.07981 0.784823C0.968384 1.00335 0.909128 1.24945 0.907608 1.49999V7.49999C0.908013 7.89765 1.05155 8.27902 1.30683 8.56014C1.56199 8.84139 1.90813 8.99954 2.26902 8.99999H12.2527C12.6136 8.99955 12.9598 8.8414 13.2149 8.56014C13.4702 8.279 13.6137 7.89762 13.6141 7.49999V1.49999C13.6126 1.24933 13.5534 1.00334 13.4419 0.784823L8.102 5.40774Z" fill="#589195"/>
</svg>
