<svg width="10" height="11" viewBox="0 0 10 11" fill="none" xmlns="http://www.w3.org/2000/svg">
<path d="M9.93043 8.67175C9.46684 7.60543 8.67624 6.90974 7.54667 6.59925C7.377 6.55261 7.19672 6.59892 7.06133 6.72087L6.12325 7.56538C5.94009 7.73031 5.6812 7.75151 5.47989 7.6147C4.48762 6.94029 3.68468 6.05564 3.07254 4.96229C2.94837 4.7405 2.96761 4.45525 3.1173 4.25345L3.88379 3.21988C3.99447 3.07063 4.0365 2.87207 3.99418 2.68513C3.71235 1.44065 3.08094 0.569531 2.11314 0.0587257C1.95697 -0.0236542 1.77285 -0.0191056 1.62014 0.0707496C1.13348 0.357142 0.667899 0.681138 0.226806 1.0455C0.0578736 1.185 -0.0272948 1.41573 0.00779715 1.64508C0.32487 3.71425 1.33965 5.89021 2.98863 7.70715C4.63761 9.52398 6.61259 10.642 8.49064 10.9914C8.6988 11.0301 8.90814 10.9362 9.03482 10.7501C9.36554 10.2641 9.65961 9.75114 9.91952 9.21494C10.001 9.0466 10.0053 8.84373 9.93043 8.67175Z" fill="#589195"/>
</svg>
